<?xml version="1.0" encoding="utf-8"?>
<!-- Generator: Adobe Illustrator 17.0.0, SVG Export Plug-In . SVG Version: 6.00 Build 0)  -->
<!DOCTYPE svg PUBLIC "-//W3C//DTD SVG 1.1//EN" "http://www.w3.org/Graphics/SVG/1.1/DTD/svg11.dtd">
<svg version="1.1" id="Слой_1" xmlns="http://www.w3.org/2000/svg" xmlns:xlink="http://www.w3.org/1999/xlink" x="0px" y="0px"
	 width="108.5px" height="130px" viewBox="0 0 108.5 130" enable-background="new 0 0 108.5 130" xml:space="preserve">
<g>
	<path fill="none" stroke="#FFC716" stroke-width="2" stroke-miterlimit="10" d="M73.605,20.685c-0.06-0.382-0.218-0.755-0.293-1.12
		c-1.943-9.404-11.378-13.788-19.767-13.78c-9.101-0.008-18.003,4.376-19.946,13.78c-0.075,0.365-0.143,0.738-0.203,1.12
		c-2.057,13.02,5.19,37.535,20.149,37.76C68.646,58.219,75.661,33.705,73.605,20.685z"/>
	<polyline fill="none" stroke="#FFC716" stroke-width="2" stroke-miterlimit="10" points="34.529,36.627 44.317,20.408 
		54.104,24.603 56.901,18.171 73.4,29.636 	"/>
	<path fill="none" stroke="#FFC716" stroke-width="2" stroke-miterlimit="10" d="M91.436,90.458
		c5.428-5.428,10.767-10.766,10.767-10.766s-20.631-5.099-26.846-8.388c-2.287-1.21-7.055-4.069-8.11-6.432
		c-1.539-3.447,0-15.241,0-15.241s-0.318,0.006-0.826,0.014"/>
	<path fill="none" stroke="#FFC716" stroke-width="2" stroke-miterlimit="10" d="M68.645,102.022c0.474-0.01,0.944-0.02,1.409-0.03"
		/>
	<path fill="none" stroke="#FFC716" stroke-width="2" stroke-miterlimit="10" d="M40.67,49.64c-0.343-0.006-0.548-0.01-0.548-0.01
		s1.539,11.723,0,15.171c-1.055,2.363-5.823,5.256-8.11,6.467c-6.215,3.289-26.846,8.407-26.846,8.407s4.708,4.74,9.763,9.829"/>
	<g>
		<path fill="none" stroke="#FFC716" stroke-width="2" stroke-miterlimit="10" d="M23.204,88.486C17.399,88.486,12.409,92,10.129,97
			H25v10H9.391c1.752,6,7.268,10.256,13.813,10.256c7.954,0,14.401-6.431,14.401-14.385C37.605,94.917,31.157,88.486,23.204,88.486z
			"/>
		<path fill="none" stroke="#FFC716" stroke-width="2" stroke-miterlimit="10" d="M84.195,88.486C90,88.486,94.99,92,97.27,97H82v10
			h16.008c-1.752,7-7.268,10.256-13.813,10.256c-7.954,0-14.401-6.431-14.401-14.385C69.794,94.917,76.242,88.486,84.195,88.486z"/>
		<line fill="none" stroke="#FFC716" stroke-width="2" stroke-miterlimit="10" x1="35" y1="97" x2="70" y2="97"/>
		<line fill="none" stroke="#FFC716" stroke-width="2" stroke-miterlimit="10" x1="37" y1="107" x2="70" y2="107"/>
	</g>
</g>
</svg>
