<?xml version="1.0" encoding="utf-8"?>
<!-- Generator: Adobe Illustrator 17.0.0, SVG Export Plug-In . SVG Version: 6.00 Build 0)  -->
<!DOCTYPE svg PUBLIC "-//W3C//DTD SVG 1.1//EN" "http://www.w3.org/Graphics/SVG/1.1/DTD/svg11.dtd">
<svg version="1.1" id="Слой_1" xmlns="http://www.w3.org/2000/svg" xmlns:xlink="http://www.w3.org/1999/xlink" x="0px" y="0px"
	 width="637px" height="194px" viewBox="0 0 637 194" enable-background="new 0 0 637 194" xml:space="preserve">
<g>
	<path fill="#FFFFFF" d="M184.738,2.984c7.095,0,12.552,5.457,12.552,12.552V28.09c0,7.094-5.457,12.552-12.552,12.552H125.25
		v141.079c0,6.821-5.731,12.279-12.553,12.279H87.593c-6.822,0-12.553-5.458-12.553-12.279V40.642H15.552
		C8.457,40.642,3,35.184,3,28.09V15.536C3,8.441,8.457,2.984,15.552,2.984H184.738z"/>
	<path fill="#FFFFFF" d="M231.682,194c-6.822,0-12.552-5.731-12.552-12.825V15.536c0-7.095,5.73-12.825,12.552-12.825h25.105
		c6.823,0,12.553,5.73,12.553,12.825v63.855h28.653c15.554,0,26.742-7.914,37.385-27.016l20.738-36.839
		c4.912-8.732,12.28-12.825,19.102-12.825h30.835c6.823,0,8.186,5.457,4.094,12.825L381.22,67.929
		c-6.822,12.281-15.827,25.106-34.383,29.472c13.099,2.727,26.742,19.373,34.383,31.108l33.291,52.939
		c4.367,7.094,2.456,12.552-4.639,12.552H379.31c-6.822,0-16.1-5.458-20.465-12.552l-23.467-37.112
		c-10.097-16.1-20.193-27.289-37.385-27.289H269.34v64.674c0,6.821-5.73,12.279-12.553,12.279H231.682z"/>
	<path fill="#FFFFFF" d="M550.143,2.984c50.756,0,80.5,22.922,80.5,74.224s-29.744,74.222-80.5,74.222h-63.854v30.018
		c0,6.821-5.457,12.552-12.553,12.552h-25.105c-6.822,0-12.552-5.731-12.552-12.552V15.536c0-7.095,5.457-12.552,12.279-12.552
		H550.143z M486.289,40.642v73.132h48.573c26.196,0,45.57-5.458,45.57-36.566c0-31.11-19.375-36.566-45.57-36.566H486.289z"/>
</g>
</svg>
